<?xml version="1.0" encoding="UTF-8"?>
<!DOCTYPE svg PUBLIC "-//W3C//DTD SVG 1.1//EN" "http://www.w3.org/Graphics/SVG/1.1/DTD/svg11.dtd">
<svg xmlns="http://www.w3.org/2000/svg" version="1.1" width="151px" height="53px" style="shape-rendering:geometricPrecision; text-rendering:geometricPrecision; image-rendering:optimizeQuality; fill-rule:evenodd; clip-rule:evenodd" xmlns:xlink="http://www.w3.org/1999/xlink">
<g><path style="opacity:1" fill="#fafafa" d="M -0.5,-0.5 C 49.8333,-0.5 100.167,-0.5 150.5,-0.5C 150.5,17.1667 150.5,34.8333 150.5,52.5C 100.167,52.5 49.8333,52.5 -0.5,52.5C -0.5,34.8333 -0.5,17.1667 -0.5,-0.5 Z"/></g>
<g><path style="opacity:1" fill="#090909" d="M 34.5,7.5 C 44.0472,6.94112 49.0472,11.4411 49.5,21C 49.1206,29.7536 45.7872,37.087 39.5,43C 26.9938,48.3362 20.6605,44.1695 20.5,30.5C 20.0245,19.4851 24.6912,11.8184 34.5,7.5 Z"/></g>
<g><path style="opacity:1" fill="#868686" d="M 111.5,8.5 C 107.988,7.9455 104.988,8.61216 102.5,10.5C 101.596,9.79105 101.263,8.79105 101.5,7.5C 105.042,7.18723 108.375,7.52056 111.5,8.5 Z"/></g>
<g><path style="opacity:1" fill="#8c8c8c" d="M 119.5,8.5 C 122.687,7.19438 126.02,7.19438 129.5,8.5C 129.376,9.10667 129.043,9.44001 128.5,9.5C 125.713,8.52333 122.713,8.19 119.5,8.5 Z"/></g>
<g><path style="opacity:1" fill="#080808" d="M 53.5,8.5 C 59.8421,8.33379 66.1754,8.50046 72.5,9C 78.1174,12.8649 78.9507,17.6982 75,23.5C 73.5806,24.4601 72.0806,25.2935 70.5,26C 76.2115,29.4194 77.0448,33.9194 73,39.5C 71.4571,41.3783 69.6238,42.8783 67.5,44C 61.1405,44.8306 54.8072,44.6639 48.5,43.5C 50.678,31.8953 52.3446,20.2286 53.5,8.5 Z"/></g>
<g><path style="opacity:1" fill="#060606" d="M 90.5,18.5 C 89.5655,19.5676 89.2322,20.901 89.5,22.5C 91.8333,22.5 94.1667,22.5 96.5,22.5C 96.5,23.5 96.5,24.5 96.5,25.5C 96.5,27.1667 96.5,28.8333 96.5,30.5C 93.5,30.5 90.5,30.5 87.5,30.5C 87.5,32.5 87.5,34.5 87.5,36.5C 90.1667,36.5 92.8333,36.5 95.5,36.5C 95.5987,39.2372 95.2653,41.9039 94.5,44.5C 88.5,44.5 82.5,44.5 76.5,44.5C 76.6741,42.139 77.0074,39.8056 77.5,37.5C 78.8332,27.8347 80.1665,18.1681 81.5,8.5C 87.8421,8.33379 94.1754,8.50046 100.5,9C 99.565,11.3806 99.2317,13.8806 99.5,16.5C 95.9878,15.9455 92.9878,16.6122 90.5,18.5 Z"/></g>
<g><path style="opacity:1" fill="#090909" d="M 111.5,8.5 C 112.429,11.6754 113.262,15.0087 114,18.5C 115.608,14.9439 117.441,11.6106 119.5,8.5C 122.713,8.19 125.713,8.52333 128.5,9.5C 124.894,16.2785 121.061,22.9452 117,29.5C 116.088,34.4636 115.588,39.4636 115.5,44.5C 112.167,44.5 108.833,44.5 105.5,44.5C 105.389,39.554 106.056,34.7206 107.5,30C 106.024,23.4552 104.357,16.9552 102.5,10.5C 104.988,8.61216 107.988,7.9455 111.5,8.5 Z"/></g>
<g><path style="opacity:1" fill="#cfcfcf" d="M 62.5,15.5 C 67.478,15.9523 68.478,18.1189 65.5,22C 64.0563,22.7805 62.723,22.6139 61.5,21.5C 62.3482,19.5914 62.6816,17.5914 62.5,15.5 Z"/></g>
<g><path style="opacity:1" fill="#efefef" d="M 34.5,16.5 C 38.0624,16.5638 39.7291,18.3972 39.5,22C 38.8748,25.5438 38.0415,29.0438 37,32.5C 35.7257,36.4853 33.7257,37.1519 31,34.5C 29.7482,27.9484 30.9149,21.9484 34.5,16.5 Z"/></g>
<g><path style="opacity:1" fill="#696969" d="M 90.5,18.5 C 90.5,19.5 90.5,20.5 90.5,21.5C 92.8333,21.5 95.1667,21.5 97.5,21.5C 97.7678,23.099 97.4345,24.4324 96.5,25.5C 96.5,24.5 96.5,23.5 96.5,22.5C 94.1667,22.5 91.8333,22.5 89.5,22.5C 89.2322,20.901 89.5655,19.5676 90.5,18.5 Z"/></g>
<g><path style="opacity:1" fill="#d5d5d5" d="M 60.5,29.5 C 66.2591,30.533 66.9258,33.033 62.5,37C 61.552,37.4828 60.552,37.6495 59.5,37.5C 59.5751,34.7938 59.9084,32.1272 60.5,29.5 Z"/></g>
<g><path style="opacity:1" fill="#b7b7b7" d="M 120.5,37.5 C 122.467,37.2606 124.301,37.5939 126,38.5C 125.094,39.3797 124.594,41.5464 124.5,45C 120.945,46.1225 118.945,44.7892 118.5,41C 118.978,39.6974 119.645,38.5307 120.5,37.5 Z"/></g>
<g><path style="opacity:1" fill="#afafaf" d="M 77.5,37.5 C 77.0074,39.8056 76.6741,42.139 76.5,44.5C 82.5,44.5 88.5,44.5 94.5,44.5C 88.3554,45.4902 82.0221,45.8235 75.5,45.5C 75.1107,42.4467 75.7773,39.78 77.5,37.5 Z"/></g>
</svg>
